<svg id="Camada_1" data-name="Camada 1" xmlns="http://www.w3.org/2000/svg" viewBox="0 0 1920 1080"><defs><style>.cls-1{fill:#8e44ad;}.cls-2,.cls-3{fill:none;}.cls-2{stroke:#fff;stroke-miterlimit:10;stroke-width:0.5px;}</style></defs><title>bk-purple</title><rect class="cls-1" x="-23.3" y="-8.89" width="1998.5" height="1099.55"/><path class="cls-2" d="M78.31,985.76c-24.64-90-112.61-149.92-205.54-129.88-65.15,16.66-114.26,72.19-107.92,141.64,7.11,50.62,43.46,87.84,94.22,94.7,20.13,2.51,40.69.08,60.82-1.57,19.43,0,32.45,2.78,49.54,12.07a38.23,38.23,0,0,0,4.51,3c20.74,17.18,44.25,46.16,72.1,22.82,10.67-7.81,18.83-20.82,24.38-32.71C86.64,1061.76,87.34,1021.85,78.31,985.76ZM44,1018.34C34,1051.09-1.51,1034.7-24.67,1029c-11.54-1.91-21.61-2.65-33.32-1.39-31.84,6.42-53.79,32.8-88,31.5-16.49-1.22-30.46-7.77-42.6-18.83-34.62-34.36-29.42-86.59-1.05-123.08,53-62.94,148.63-56,202.42,1.61,18.4,20.39,32.28,46.64,33.93,74.36C47.25,1001.38,46.82,1010.49,44,1018.34Z"/><path class="cls-2" d="M435.8,985.76c-24.64-90-112.62-149.92-205.54-129.88C165.1,872.54,116,928.07,122.33,997.52c7.12,50.62,43.47,87.84,94.23,94.7,20.13,2.51,40.69.08,60.82-1.57,19.43,0,32.45,2.78,49.54,12.07a38.23,38.23,0,0,0,4.51,3c20.74,17.18,44.25,46.16,72.1,22.82,10.67-7.81,18.83-20.82,24.38-32.71C444.13,1061.76,444.83,1021.85,435.8,985.76Zm-34.27,32.58c-10.06,32.75-45.55,16.36-68.71,10.63-11.54-1.91-21.61-2.65-33.32-1.39-31.84,6.42-53.79,32.8-88,31.5-16.49-1.22-30.46-7.77-42.61-18.83-34.61-34.36-29.41-86.59-1-123.08,53-62.94,148.63-56,202.42,1.61,18.39,20.39,32.28,46.64,33.92,74.36C404.74,1001.38,404.31,1010.49,401.53,1018.34Z"/><path class="cls-2" d="M296.64,899.35c-44.25-25-98.57-8.68-125.46,33.31-10.41,16.92-16.4,37.4-13.62,57.35.87,7,3.12,14.84,7.2,20.69,10.5,16.27,27.07,5.25,40.34-.21a24.12,24.12,0,0,0,2.87-.87c10.15-2,17.18-1.3,27.15,1.82,9.9,4.08,20,8.5,30.72,10.41,27,4.69,51.45-8.41,63.07-33.23C343.23,954.27,327.09,918.26,296.64,899.35Z"/><path class="cls-2" d="M791.62,985.76C767,895.79,679,835.84,586.08,855.88c-65.16,16.66-114.26,72.19-107.93,141.64,7.11,50.62,43.47,87.84,94.22,94.7,20.13,2.51,40.7.08,60.82-1.57,19.44,0,32.45,2.78,49.54,12.07a38.34,38.34,0,0,0,4.52,3c20.73,17.18,44.24,46.16,72.09,22.82,10.68-7.81,18.83-20.82,24.39-32.71C800,1061.76,800.64,1021.85,791.62,985.76Zm-34.27,32.58c-10.06,32.75-45.55,16.36-68.72,10.63-11.53-1.91-21.6-2.65-33.31-1.39-31.85,6.42-53.8,32.8-88,31.5-16.48-1.22-30.45-7.77-42.6-18.83-34.62-34.36-29.41-86.59-1-123.08,53-62.94,148.62-56,202.42,1.61,18.39,20.39,32.27,46.64,33.92,74.36C760.56,1001.38,760.12,1010.49,757.35,1018.34Z"/><path class="cls-2" d="M652.45,899.35c-44.24-25-98.56-8.68-125.45,33.31-10.41,16.92-16.4,37.4-13.63,57.35.87,7,3.13,14.84,7.2,20.69,10.51,16.27,27.08,5.25,40.35-.21a24,24,0,0,0,2.86-.87c10.15-2,17.18-1.3,27.16,1.82,9.89,4.08,20,8.5,30.71,10.41,27,4.69,51.45-8.41,63.08-33.23C699,954.27,682.91,918.26,652.45,899.35Z"/><path class="cls-2" d="M1149.11,985.76c-24.64-90-112.62-149.92-205.54-129.88-65.16,16.66-114.26,72.19-107.93,141.64,7.11,50.62,43.47,87.84,94.22,94.7,20.13,2.51,40.69.08,60.82-1.57,19.44,0,32.45,2.78,49.54,12.07a39.07,39.07,0,0,0,4.51,3c20.74,17.18,44.25,46.16,72.1,22.82,10.68-7.81,18.83-20.82,24.38-32.71C1157.44,1061.76,1158.13,1021.85,1149.11,985.76Zm-34.27,32.58c-10.06,32.75-45.55,16.36-68.72,10.63-11.54-1.91-21.6-2.65-33.32-1.39-31.84,6.42-53.79,32.8-88,31.5-16.48-1.22-30.46-7.77-42.6-18.83-34.62-34.36-29.41-86.59-1-123.08,53-62.94,148.62-56,202.41,1.61,18.4,20.39,32.28,46.64,33.93,74.36C1118.05,1001.38,1117.61,1010.49,1114.84,1018.34Z"/><path class="cls-2" d="M1009.94,899.35c-44.25-25-98.56-8.68-125.45,33.31-10.42,16.92-16.4,37.4-13.63,57.35.87,7,3.13,14.84,7.2,20.69,10.5,16.27,27.07,5.25,40.35-.21a24,24,0,0,0,2.86-.87c10.15-2,17.18-1.3,27.16,1.82,9.89,4.08,20,8.5,30.71,10.41,27,4.69,51.45-8.41,63.08-33.23C1056.53,954.27,1040.39,918.26,1009.94,899.35Z"/><path class="cls-2" d="M1510.62,985.76c-24.64-90-112.62-149.92-205.54-129.88-65.16,16.66-114.27,72.19-107.93,141.64,7.11,50.62,43.47,87.84,94.22,94.7,20.13,2.51,40.69.08,60.82-1.57,19.43,0,32.45,2.78,49.54,12.07a38.23,38.23,0,0,0,4.51,3c20.74,17.18,44.25,46.16,72.1,22.82,10.67-7.81,18.83-20.82,24.38-32.71C1519,1061.76,1519.64,1021.85,1510.62,985.76Zm-34.28,32.58c-10.06,32.75-45.55,16.36-68.71,10.63-11.54-1.91-21.6-2.65-33.32-1.39-31.84,6.42-53.79,32.8-88,31.5-16.49-1.22-30.46-7.77-42.6-18.83-34.62-34.36-29.41-86.59-1-123.08,53-62.94,148.63-56,202.42,1.61,18.4,20.39,32.28,46.64,33.93,74.36C1479.56,1001.38,1479.12,1010.49,1476.34,1018.34Z"/><path class="cls-2" d="M1371.45,899.35c-44.25-25-98.56-8.68-125.46,33.31-10.41,16.92-16.4,37.4-13.62,57.35.87,7,3.12,14.84,7.2,20.69,10.5,16.27,27.07,5.25,40.35-.21a24,24,0,0,0,2.86-.87c10.15-2,17.18-1.3,27.16,1.82,9.89,4.08,20,8.5,30.71,10.41,27,4.69,51.45-8.41,63.07-33.23C1418,954.27,1401.9,918.26,1371.45,899.35Z"/><path class="cls-2" d="M1868.11,985.76c-24.65-90-112.62-149.92-205.55-129.88-65.15,16.66-114.26,72.19-107.92,141.64,7.11,50.62,43.46,87.84,94.22,94.7,20.13,2.51,40.69.08,60.82-1.57,19.43,0,32.45,2.78,49.54,12.07a38.23,38.23,0,0,0,4.51,3c20.74,17.18,44.25,46.16,72.1,22.82,10.67-7.81,18.83-20.82,24.38-32.71C1876.43,1061.76,1877.13,1021.85,1868.11,985.76Zm-34.28,32.58c-10.06,32.75-45.55,16.36-68.71,10.63-11.54-1.91-21.61-2.65-33.32-1.39-31.84,6.42-53.79,32.8-88,31.5-16.49-1.22-30.46-7.77-42.6-18.83-34.62-34.36-29.42-86.59-1-123.08,53-62.94,148.63-56,202.42,1.61,18.4,20.39,32.28,46.64,33.93,74.36C1837.05,1001.38,1836.61,1010.49,1833.83,1018.34Z"/><path class="cls-2" d="M1728.94,899.35c-44.25-25-98.56-8.68-125.46,33.31-10.41,16.92-16.4,37.4-13.62,57.35.87,7,3.12,14.84,7.2,20.69,10.5,16.27,27.07,5.25,40.34-.21a24.12,24.12,0,0,0,2.87-.87c10.15-2,17.18-1.3,27.15,1.82,9.9,4.08,20,8.5,30.72,10.41,27,4.69,51.45-8.41,63.07-33.23C1775.53,954.27,1759.39,918.26,1728.94,899.35Z"/><path class="cls-2" d="M170.44,680.41C145.8,590.44,57.82,530.48-35.1,550.53-100.26,567.18-149.36,622.71-143,692.16c7.12,50.63,43.47,87.85,94.23,94.71,20.12,2.51,40.69.08,60.82-1.57,19.43,0,32.45,2.78,49.53,12.06a37.23,37.23,0,0,0,4.52,3c20.73,17.18,44.25,46.15,72.09,22.82,10.68-7.81,18.84-20.83,24.39-32.71C178.77,756.41,179.46,716.5,170.44,680.41ZM136.17,713c-10.06,32.75-45.55,16.35-68.72,10.62-11.53-1.9-21.6-2.64-33.31-1.38-31.84,6.42-53.79,32.79-88,31.49-16.48-1.22-30.45-7.76-42.6-18.82-34.61-34.36-29.41-86.6-1-123.08,53-62.94,148.63-56.05,202.42,1.61,18.39,20.39,32.27,46.63,33.92,74.35C139.38,696,139,705.13,136.17,713Z"/><path class="cls-2" d="M31.28,594C-13,569-67.29,585.32-94.18,627.31c-10.41,16.92-16.4,37.39-13.62,57.35.87,7,3.12,14.84,7.2,20.69,10.5,16.27,27.07,5.25,40.34-.22a22.33,22.33,0,0,0,2.87-.86c10.15-2,17.17-1.3,27.15,1.82,9.89,4.08,20,8.5,30.71,10.41,27,4.69,51.45-8.42,63.08-33.23C77.87,648.91,61.73,612.91,31.28,594Z"/><path class="cls-2" d="M527.93,680.41c-24.64-90-112.62-149.93-205.54-129.88-65.16,16.65-114.26,72.18-107.93,141.63,7.11,50.63,43.47,87.85,94.23,94.71,20.12,2.51,40.69.08,60.81-1.57,19.44,0,32.45,2.78,49.54,12.06a37.23,37.23,0,0,0,4.52,3c20.73,17.18,44.25,46.15,72.09,22.82,10.68-7.81,18.83-20.83,24.39-32.71C536.26,756.41,537,716.5,527.93,680.41ZM493.66,713c-10.06,32.75-45.55,16.35-68.72,10.62-11.53-1.9-21.6-2.64-33.31-1.38-31.85,6.42-53.79,32.79-88,31.49-16.48-1.22-30.45-7.76-42.6-18.82-34.62-34.36-29.41-86.6-1-123.08,53-62.94,148.63-56.05,202.42,1.61,18.39,20.39,32.27,46.63,33.92,74.35C496.87,696,496.44,705.13,493.66,713Z"/><path class="cls-2" d="M388.77,594c-44.25-25-98.57-8.67-125.46,33.32-10.41,16.92-16.4,37.39-13.63,57.35.87,7,3.13,14.84,7.21,20.69,10.5,16.27,27.07,5.25,40.34-.22a22.2,22.2,0,0,0,2.86-.86c10.15-2,17.18-1.3,27.16,1.82,9.89,4.08,20,8.5,30.71,10.41,27,4.69,51.45-8.42,63.08-33.23C435.35,648.91,419.22,612.91,388.77,594Z"/><path class="cls-2" d="M883.75,680.41c-24.64-90-112.62-149.93-205.54-129.88-65.16,16.65-114.27,72.18-107.93,141.63,7.11,50.63,43.47,87.85,94.22,94.71,20.13,2.51,40.69.08,60.82-1.57,19.43,0,32.45,2.78,49.54,12.06a37.13,37.13,0,0,0,4.51,3c20.74,17.18,44.25,46.15,72.1,22.82,10.67-7.81,18.83-20.83,24.38-32.71C892.08,756.41,892.77,716.5,883.75,680.41ZM849.48,713c-10.07,32.75-45.56,16.35-68.72,10.62-11.54-1.9-21.6-2.64-33.32-1.38-31.84,6.42-53.79,32.79-88,31.49C643,752.5,629,746,616.87,734.9c-34.62-34.36-29.41-86.6-1-123.08,53-62.94,148.63-56.05,202.42,1.61,18.4,20.39,32.28,46.63,33.93,74.35C852.69,696,852.25,705.13,849.48,713Z"/><path class="cls-2" d="M744.58,594c-44.25-25-98.56-8.67-125.46,33.32-10.41,16.92-16.4,37.39-13.62,57.35.87,7,3.12,14.84,7.2,20.69,10.5,16.27,27.07,5.25,40.35-.22a22.2,22.2,0,0,0,2.86-.86c10.15-2,17.18-1.3,27.16,1.82,9.89,4.08,20,8.5,30.71,10.41,27,4.69,51.45-8.42,63.07-33.23C791.17,648.91,775,612.91,744.58,594Z"/><path class="cls-2" d="M1241.24,680.41c-24.65-90-112.62-149.93-205.55-129.88-65.15,16.65-114.26,72.18-107.92,141.63,7.11,50.63,43.46,87.85,94.22,94.71,20.13,2.51,40.69.08,60.82-1.57,19.43,0,32.45,2.78,49.54,12.06a37.13,37.13,0,0,0,4.51,3c20.74,17.18,44.25,46.15,72.1,22.82,10.67-7.81,18.83-20.83,24.38-32.71C1249.56,756.41,1250.26,716.5,1241.24,680.41ZM1207,713c-10.06,32.75-45.55,16.35-68.71,10.62-11.54-1.9-21.6-2.64-33.32-1.38-31.84,6.42-53.79,32.79-88,31.49-16.49-1.22-30.46-7.76-42.6-18.82-34.62-34.36-29.41-86.6-1.05-123.08,53-62.94,148.63-56.05,202.42,1.61,18.4,20.39,32.28,46.63,33.93,74.35C1210.18,696,1209.74,705.13,1207,713Z"/><path class="cls-2" d="M1102.07,594c-44.25-25-98.56-8.67-125.46,33.32-10.41,16.92-16.4,37.39-13.62,57.35.87,7,3.12,14.84,7.2,20.69,10.5,16.27,27.07,5.25,40.34-.22a22.33,22.33,0,0,0,2.87-.86c10.15-2,17.18-1.3,27.15,1.82,9.9,4.08,20,8.5,30.72,10.41,27,4.69,51.45-8.42,63.07-33.23C1148.66,648.91,1132.52,612.91,1102.07,594Z"/><path class="cls-2" d="M1602.74,680.41c-24.64-90-112.62-149.93-205.54-129.88-65.16,16.65-114.26,72.18-107.92,141.63,7.11,50.63,43.46,87.85,94.22,94.71,20.13,2.51,40.69.08,60.82-1.57,19.43,0,32.45,2.78,49.54,12.06a37.13,37.13,0,0,0,4.51,3c20.74,17.18,44.25,46.15,72.1,22.82,10.67-7.81,18.83-20.83,24.38-32.71C1611.07,756.41,1611.77,716.5,1602.74,680.41ZM1568.47,713c-10.06,32.75-45.55,16.35-68.71,10.62-11.54-1.9-21.61-2.64-33.32-1.38-31.84,6.42-53.79,32.79-88,31.49C1362,752.5,1348,746,1335.87,734.9c-34.62-34.36-29.42-86.6-1-123.08,53-62.94,148.63-56.05,202.42,1.61,18.39,20.39,32.28,46.63,33.92,74.35C1571.68,696,1571.25,705.13,1568.47,713Z"/><path class="cls-2" d="M1463.58,594c-44.25-25-98.57-8.67-125.46,33.32-10.41,16.92-16.4,37.39-13.62,57.35.87,7,3.12,14.84,7.2,20.69,10.5,16.27,27.07,5.25,40.34-.22a22.33,22.33,0,0,0,2.87-.86c10.15-2,17.18-1.3,27.15,1.82,9.9,4.08,20,8.5,30.72,10.41,27,4.69,51.45-8.42,63.07-33.23C1510.17,648.91,1494,612.91,1463.58,594Z"/><path class="cls-2" d="M1960.23,680.41c-24.64-90-112.62-149.93-205.54-129.88-65.16,16.65-114.26,72.18-107.93,141.63,7.12,50.63,43.47,87.85,94.23,94.71,20.12,2.51,40.69.08,60.82-1.57,19.43,0,32.45,2.78,49.53,12.06a37.23,37.23,0,0,0,4.52,3c20.73,17.18,44.25,46.15,72.1,22.82,10.67-7.81,18.83-20.83,24.38-32.71C1968.56,756.41,1969.25,716.5,1960.23,680.41ZM1926,713c-10.06,32.75-45.55,16.35-68.72,10.62-11.53-1.9-21.6-2.64-33.31-1.38-31.84,6.42-53.79,32.79-88,31.49-16.48-1.22-30.45-7.76-42.6-18.82-34.61-34.36-29.41-86.6-1-123.08,53-62.94,148.63-56.05,202.42,1.61,18.39,20.39,32.27,46.63,33.92,74.35C1929.17,696,1928.74,705.13,1926,713Z"/><path class="cls-2" d="M1821.07,594c-44.25-25-98.57-8.67-125.46,33.32-10.41,16.92-16.4,37.39-13.62,57.35.87,7,3.12,14.84,7.2,20.69,10.5,16.27,27.07,5.25,40.34-.22a22.33,22.33,0,0,0,2.87-.86c10.15-2,17.17-1.3,27.15,1.82,9.89,4.08,20,8.5,30.71,10.41,27,4.69,51.45-8.42,63.08-33.23C1867.66,648.91,1851.52,612.91,1821.07,594Z"/><path class="cls-2" d="M238.22,381.81c-24.64-90-112.62-149.92-205.54-129.88C-32.48,268.59-81.58,324.11-75.25,393.56c7.12,50.63,43.47,87.85,94.23,94.71,20.13,2.51,40.69.08,60.82-1.57,19.43,0,32.45,2.78,49.54,12.06a37.13,37.13,0,0,0,4.51,3C154.59,519,178.1,548,206,524.62c10.67-7.81,18.83-20.82,24.38-32.71C246.55,457.81,247.24,417.9,238.22,381.81ZM204,414.39c-10.06,32.75-45.55,16.36-68.72,10.62-11.53-1.9-21.6-2.64-33.31-1.38-31.84,6.42-53.79,32.8-88,31.49-16.49-1.21-30.46-7.76-42.61-18.82-34.61-34.36-29.41-86.59-1-123.08,53-62.94,148.63-56,202.42,1.61,18.39,20.39,32.28,46.63,33.92,74.35C207.16,397.43,206.73,406.54,204,414.39Z"/><path class="cls-2" d="M99.06,295.4c-44.25-25-98.57-8.68-125.46,33.31-10.41,16.92-16.4,37.4-13.62,57.35.87,7,3.12,14.84,7.2,20.69C-22.32,423-5.75,412,7.52,406.54a24.12,24.12,0,0,0,2.87-.87c10.15-2,17.17-1.3,27.15,1.82,9.89,4.08,20.05,8.5,30.72,10.41,27,4.69,51.44-8.42,63.07-33.23C145.65,350.31,129.51,314.31,99.06,295.4Z"/><path class="cls-2" d="M595.71,381.81c-24.64-90-112.62-149.92-205.54-129.88C325,268.59,275.91,324.11,282.24,393.56c7.12,50.63,43.47,87.85,94.23,94.71,20.12,2.51,40.69.08,60.81-1.57,19.44,0,32.46,2.78,49.54,12.06a37.23,37.23,0,0,0,4.52,3C512.07,519,535.59,548,563.43,524.62c10.68-7.81,18.83-20.82,24.39-32.71C604,457.81,604.73,417.9,595.71,381.81Zm-34.27,32.58c-10.06,32.75-45.55,16.36-68.72,10.62-11.53-1.9-21.6-2.64-33.31-1.38-31.84,6.42-53.79,32.8-88,31.49-16.48-1.21-30.45-7.76-42.6-18.82-34.62-34.36-29.41-86.59-1-123.08,53-62.94,148.63-56,202.42,1.61,18.39,20.39,32.27,46.63,33.92,74.35C564.65,397.43,564.22,406.54,561.44,414.39Z"/><path class="cls-2" d="M456.55,295.4c-44.25-25-98.57-8.68-125.46,33.31-10.41,16.92-16.4,37.4-13.62,57.35.87,7,3.12,14.84,7.2,20.69,10.5,16.27,27.07,5.25,40.34-.21a24.12,24.12,0,0,0,2.87-.87c10.15-2,17.17-1.3,27.15,1.82,9.89,4.08,20,8.5,30.71,10.41,27,4.69,51.45-8.42,63.08-33.23C503.14,350.31,487,314.31,456.55,295.4Z"/><path class="cls-2" d="M951.53,381.81c-24.64-90-112.62-149.92-205.54-129.88-65.16,16.66-114.26,72.18-107.93,141.63,7.11,50.63,43.47,87.85,94.22,94.71,20.13,2.51,40.69.08,60.82-1.57,19.44,0,32.45,2.78,49.54,12.06a37.92,37.92,0,0,0,4.51,3C867.89,519,891.4,548,919.25,524.62c10.68-7.81,18.83-20.82,24.38-32.71C959.86,457.81,960.55,417.9,951.53,381.81Zm-34.27,32.58c-10.07,32.75-45.55,16.36-68.72,10.62-11.54-1.9-21.6-2.64-33.32-1.38-31.84,6.42-53.79,32.8-88,31.49-16.48-1.21-30.46-7.76-42.6-18.82-34.62-34.36-29.41-86.59-1-123.08,53-62.94,148.62-56,202.41,1.61,18.4,20.39,32.28,46.63,33.93,74.35C920.47,397.43,920,406.54,917.26,414.39Z"/><path class="cls-2" d="M812.36,295.4c-44.25-25-98.56-8.68-125.45,33.31-10.42,16.92-16.4,37.4-13.63,57.35.87,7,3.12,14.84,7.2,20.69,10.5,16.27,27.07,5.25,40.35-.21a24,24,0,0,0,2.86-.87c10.15-2,17.18-1.3,27.16,1.82,9.89,4.08,20,8.5,30.71,10.41,27,4.69,51.45-8.42,63.08-33.23C859,350.31,842.81,314.31,812.36,295.4Z"/><path class="cls-2" d="M1309,381.81c-24.64-90-112.62-149.92-205.54-129.88-65.16,16.66-114.27,72.18-107.93,141.63,7.11,50.63,43.47,87.85,94.22,94.71,20.13,2.51,40.69.08,60.82-1.57,19.43,0,32.45,2.78,49.54,12.06a37.13,37.13,0,0,0,4.51,3c20.74,17.18,44.25,46.16,72.1,22.82,10.67-7.81,18.83-20.82,24.38-32.71C1317.35,457.81,1318,417.9,1309,381.81Zm-34.28,32.58c-10.06,32.75-45.55,16.36-68.71,10.62-11.54-1.9-21.6-2.64-33.32-1.38-31.84,6.42-53.79,32.8-88,31.49-16.49-1.21-30.46-7.76-42.6-18.82-34.62-34.36-29.41-86.59-1.05-123.08,53-62.94,148.63-56,202.42,1.61,18.4,20.39,32.28,46.63,33.93,74.35C1278,397.43,1277.52,406.54,1274.74,414.39Z"/><path class="cls-2" d="M1169.85,295.4c-44.25-25-98.56-8.68-125.46,33.31-10.41,16.92-16.4,37.4-13.62,57.35.87,7,3.12,14.84,7.2,20.69,10.5,16.27,27.07,5.25,40.35-.21a24,24,0,0,0,2.86-.87c10.15-2,17.18-1.3,27.16,1.82,9.89,4.08,20,8.5,30.71,10.41,27,4.69,51.45-8.42,63.07-33.23C1216.44,350.31,1200.3,314.31,1169.85,295.4Z"/><path class="cls-2" d="M1670.52,381.81c-24.64-90-112.61-149.92-205.54-129.88-65.15,16.66-114.26,72.18-107.92,141.63,7.11,50.63,43.46,87.85,94.22,94.71,20.13,2.51,40.69.08,60.82-1.57,19.43,0,32.45,2.78,49.54,12.06a37.13,37.13,0,0,0,4.51,3c20.74,17.18,44.25,46.16,72.1,22.82,10.67-7.81,18.83-20.82,24.38-32.71C1678.85,457.81,1679.55,417.9,1670.52,381.81Zm-34.27,32.58c-10.06,32.75-45.55,16.36-68.71,10.62-11.54-1.9-21.61-2.64-33.32-1.38-31.84,6.42-53.79,32.8-88,31.49-16.49-1.21-30.46-7.76-42.6-18.82-34.62-34.36-29.42-86.59-1.05-123.08,53-62.94,148.63-56,202.42,1.61,18.4,20.39,32.28,46.63,33.92,74.35C1639.46,397.43,1639,406.54,1636.25,414.39Z"/><path class="cls-2" d="M1531.36,295.4c-44.25-25-98.56-8.68-125.46,33.31-10.41,16.92-16.4,37.4-13.62,57.35.87,7,3.12,14.84,7.2,20.69,10.5,16.27,27.07,5.25,40.34-.21a24.12,24.12,0,0,0,2.87-.87c10.15-2,17.18-1.3,27.15,1.82,9.9,4.08,20.05,8.5,30.72,10.41,27,4.69,51.45-8.42,63.07-33.23C1578,350.31,1561.81,314.31,1531.36,295.4Z"/><path class="cls-2" d="M2028,381.81c-24.64-90-112.62-149.92-205.54-129.88-65.16,16.66-114.26,72.18-107.93,141.63,7.12,50.63,43.47,87.85,94.23,94.71,20.13,2.51,40.69.08,60.82-1.57,19.43,0,32.45,2.78,49.54,12.06a37.13,37.13,0,0,0,4.51,3c20.74,17.18,44.25,46.16,72.1,22.82,10.67-7.81,18.83-20.82,24.38-32.71C2036.34,457.81,2037,417.9,2028,381.81Zm-34.27,32.58c-10.06,32.75-45.55,16.36-68.71,10.62-11.54-1.9-21.61-2.64-33.32-1.38-31.84,6.42-53.79,32.8-88,31.49-16.49-1.21-30.46-7.76-42.61-18.82-34.61-34.36-29.41-86.59-1-123.08,53-62.94,148.63-56,202.42,1.61,18.39,20.39,32.28,46.63,33.92,74.35C1997,397.43,1996.52,406.54,1993.74,414.39Z"/><path class="cls-2" d="M1888.85,295.4c-44.25-25-98.57-8.68-125.46,33.31-10.41,16.92-16.4,37.4-13.62,57.35.87,7,3.12,14.84,7.2,20.69,10.5,16.27,27.07,5.25,40.34-.21a24.12,24.12,0,0,0,2.87-.87c10.15-2,17.18-1.3,27.15,1.82,9.9,4.08,20.05,8.5,30.72,10.41,27,4.69,51.45-8.42,63.07-33.23C1935.44,350.31,1919.3,314.31,1888.85,295.4Z"/><path class="cls-2" d="M330.35,76.46c-24.64-90-112.62-149.93-205.54-129.88C59.65-36.77,10.55,18.76,16.88,88.21c7.11,50.63,43.47,87.85,94.23,94.7,20.12,2.52,40.69.09,60.81-1.56,19.44,0,32.45,2.78,49.54,12.06a37.23,37.23,0,0,0,4.52,3c20.73,17.18,44.24,46.15,72.09,22.81,10.68-7.8,18.83-20.82,24.39-32.7C338.68,152.46,339.37,112.55,330.35,76.46ZM296.08,109c-10.06,32.75-45.55,16.35-68.72,10.62-11.53-1.9-21.6-2.64-33.31-1.38-31.85,6.41-53.8,32.79-88,31.49-16.48-1.22-30.45-7.76-42.6-18.83-34.62-34.36-29.41-86.59-1-123.07,53-62.94,148.62-56,202.42,1.61,18.39,20.39,32.27,46.63,33.92,74.35C299.29,92.08,298.85,101.18,296.08,109Z"/><path class="cls-2" d="M191.18-10C146.94-35,92.62-18.63,65.73,23.36,55.32,40.27,49.33,60.75,52.1,80.71c.87,7,3.13,14.83,7.2,20.69,10.51,16.27,27.08,5.25,40.35-.22a23.9,23.9,0,0,0,2.86-.86c10.15-2,17.18-1.31,27.16,1.82,9.89,4.07,20,8.5,30.71,10.41,27,4.69,51.45-8.42,63.08-33.23C237.77,45,221.64,9,191.18-10Z"/><path class="cls-2" d="M687.84,76.46C663.2-13.52,575.22-73.47,482.3-53.42,417.14-36.77,368,18.76,374.37,88.21c7.11,50.63,43.47,87.85,94.22,94.7,20.13,2.52,40.69.09,60.82-1.56,19.44,0,32.45,2.78,49.54,12.06a37.92,37.92,0,0,0,4.51,3c20.74,17.18,44.25,46.15,72.1,22.81,10.68-7.8,18.83-20.82,24.38-32.7C696.17,152.46,696.86,112.55,687.84,76.46ZM653.57,109c-10.06,32.75-45.55,16.35-68.72,10.62-11.54-1.9-21.6-2.64-33.32-1.38-31.84,6.41-53.79,32.79-88,31.49-16.48-1.22-30.46-7.76-42.6-18.83-34.62-34.36-29.41-86.59-1-123.07,53-62.94,148.62-56,202.41,1.61,18.4,20.39,32.28,46.63,33.93,74.35C656.78,92.08,656.34,101.18,653.57,109Z"/><path class="cls-2" d="M548.67-10c-44.25-25-98.56-8.67-125.45,33.32-10.42,16.91-16.4,37.39-13.63,57.35.87,7,3.13,14.83,7.2,20.69,10.5,16.27,27.07,5.25,40.35-.22a23.9,23.9,0,0,0,2.86-.86c10.15-2,17.18-1.31,27.16,1.82,9.89,4.07,20,8.5,30.71,10.41,27,4.69,51.45-8.42,63.08-33.23C595.26,45,579.12,9,548.67-10Z"/><path class="cls-2" d="M1043.65,76.46C1019-13.52,931-73.47,838.11-53.42,773-36.77,723.85,18.76,730.19,88.21c7.11,50.63,43.46,87.85,94.22,94.7,20.13,2.52,40.69.09,60.82-1.56,19.43,0,32.45,2.78,49.54,12.06a37.13,37.13,0,0,0,4.51,3c20.74,17.18,44.25,46.15,72.1,22.81,10.67-7.8,18.83-20.82,24.38-32.7C1052,152.46,1052.68,112.55,1043.65,76.46ZM1009.38,109c-10.06,32.75-45.55,16.35-68.71,10.62-11.54-1.9-21.61-2.64-33.32-1.38-31.84,6.41-53.79,32.79-88,31.49-16.49-1.22-30.46-7.76-42.6-18.83-34.62-34.36-29.42-86.59-1-123.07,53-62.94,148.63-56,202.42,1.61,18.4,20.39,32.28,46.63,33.93,74.35C1012.6,92.08,1012.16,101.18,1009.38,109Z"/><path class="cls-2" d="M904.49-10C860.24-35,805.93-18.63,779,23.36c-10.41,16.91-16.4,37.39-13.62,57.35.87,7,3.12,14.83,7.2,20.69,10.5,16.27,27.07,5.25,40.34-.22a24,24,0,0,0,2.87-.86C826,98.32,833,99,843,102.14c9.9,4.07,20,8.5,30.72,10.41,27,4.69,51.45-8.42,63.07-33.23C951.08,45,934.94,9,904.49-10Z"/><path class="cls-2" d="M1401.14,76.46c-24.64-90-112.62-149.93-205.54-129.88-65.16,16.65-114.26,72.18-107.92,141.63,7.11,50.63,43.46,87.85,94.22,94.7,20.13,2.52,40.69.09,60.82-1.56,19.43,0,32.45,2.78,49.54,12.06a37.13,37.13,0,0,0,4.51,3c20.74,17.18,44.25,46.15,72.1,22.81,10.67-7.8,18.83-20.82,24.38-32.7C1409.47,152.46,1410.17,112.55,1401.14,76.46ZM1366.87,109c-10.06,32.75-45.55,16.35-68.71,10.62-11.54-1.9-21.61-2.64-33.32-1.38-31.84,6.41-53.79,32.79-88,31.49-16.49-1.22-30.46-7.76-42.6-18.83-34.62-34.36-29.42-86.59-1-123.07,53-62.94,148.63-56,202.42,1.61,18.39,20.39,32.28,46.63,33.92,74.35C1370.08,92.08,1369.65,101.18,1366.87,109Z"/><path class="cls-2" d="M1262-10c-44.25-25-98.57-8.67-125.46,33.32-10.41,16.91-16.4,37.39-13.62,57.35.87,7,3.12,14.83,7.2,20.69,10.5,16.27,27.07,5.25,40.34-.22a24,24,0,0,0,2.87-.86c10.15-2,17.18-1.31,27.15,1.82,9.9,4.07,20,8.5,30.72,10.41,27,4.69,51.45-8.42,63.07-33.23C1308.57,45,1292.43,9,1262-10Z"/><path class="cls-2" d="M1762.65,76.46C1738-13.52,1650-73.47,1557.11-53.42,1492-36.77,1442.85,18.76,1449.18,88.21c7.12,50.63,43.47,87.85,94.23,94.7,20.12,2.52,40.69.09,60.82-1.56,19.43,0,32.45,2.78,49.53,12.06a37.23,37.23,0,0,0,4.52,3c20.73,17.18,44.25,46.15,72.09,22.81,10.68-7.8,18.84-20.82,24.39-32.7C1771,152.46,1771.67,112.55,1762.65,76.46ZM1728.38,109c-10.06,32.75-45.55,16.35-68.72,10.62-11.53-1.9-21.6-2.64-33.31-1.38-31.84,6.41-53.79,32.79-88,31.49-16.48-1.22-30.45-7.76-42.6-18.83-34.61-34.36-29.41-86.59-1-123.07,53-62.94,148.63-56,202.42,1.61,18.39,20.39,32.27,46.63,33.92,74.35C1731.59,92.08,1731.16,101.18,1728.38,109Z"/><path class="cls-2" d="M1623.49-10c-44.25-25-98.57-8.67-125.46,33.32-10.41,16.91-16.4,37.39-13.62,57.35.87,7,3.12,14.83,7.2,20.69,10.5,16.27,27.07,5.25,40.34-.22a24,24,0,0,0,2.87-.86c10.15-2,17.17-1.31,27.15,1.82,9.89,4.07,20,8.5,30.71,10.41,27,4.69,51.45-8.42,63.08-33.23C1670.08,45,1653.94,9,1623.49-10Z"/><path class="cls-2" d="M2120.14,76.46c-24.64-90-112.62-149.93-205.54-129.88-65.16,16.65-114.26,72.18-107.93,141.63,7.11,50.63,43.47,87.85,94.23,94.7,20.12,2.52,40.69.09,60.81-1.56,19.44,0,32.45,2.78,49.54,12.06a37.23,37.23,0,0,0,4.52,3c20.73,17.18,44.25,46.15,72.09,22.81,10.68-7.8,18.83-20.82,24.39-32.7C2128.47,152.46,2129.16,112.55,2120.14,76.46ZM2085.87,109c-10.06,32.75-45.55,16.35-68.72,10.62-11.53-1.9-21.6-2.64-33.31-1.38-31.85,6.41-53.79,32.79-88,31.49-16.48-1.22-30.45-7.76-42.6-18.83-34.62-34.36-29.41-86.59-1-123.07,53-62.94,148.63-56,202.42,1.61,18.39,20.39,32.27,46.63,33.92,74.35C2089.08,92.08,2088.65,101.18,2085.87,109Z"/><path class="cls-2" d="M1981-10c-44.25-25-98.57-8.67-125.46,33.32-10.41,16.91-16.4,37.39-13.63,57.35.87,7,3.13,14.83,7.2,20.69,10.51,16.27,27.08,5.25,40.35-.22a23.9,23.9,0,0,0,2.86-.86c10.15-2,17.18-1.31,27.16,1.82,9.89,4.07,20,8.5,30.71,10.41,27,4.69,51.45-8.42,63.08-33.23C2027.56,45,2011.43,9,1981-10Z"/><rect class="cls-3" x="209.69" y="119.81" width="1494.02" height="840.39"/></svg>