<svg id="Camada_1" data-name="Camada 1" xmlns="http://www.w3.org/2000/svg" xmlns:xlink="http://www.w3.org/1999/xlink" viewBox="0 0 1920 1080"><defs><style>.cls-1,.cls-4{fill:none;}.cls-2{clip-path:url(#clip-path);}.cls-3{fill:#ff8112;}.cls-4{stroke:#fff;stroke-miterlimit:10;stroke-width:0.5px;}</style><clipPath id="clip-path"><rect class="cls-1" width="1920" height="1080"/></clipPath></defs><title>bk</title><g class="cls-2"><rect class="cls-3" width="1920" height="1080"/><path class="cls-4" d="M290.59,1112.86C258.92,997.23,145.86,920.19,26.44,945.94c-83.74,21.41-146.84,92.77-138.7,182,9.14,65.07,55.86,112.9,121.09,121.71,25.87,3.23,52.29.11,78.16-2,25,0,41.7,3.57,63.66,15.5a48.63,48.63,0,0,0,5.8,3.9c26.65,22.08,56.87,59.32,92.66,29.32,13.71-10,24.2-26.75,31.33-42C301.29,1210.53,302.18,1159.24,290.59,1112.86Zm-44,41.87c-12.93,42.09-58.54,21-88.31,13.65-14.82-2.45-27.76-3.39-42.81-1.78-40.92,8.25-69.13,42.15-113.06,40.48-21.18-1.57-39.14-10-54.75-24.2-44.48-44.16-37.79-111.28-1.34-158.17,68.13-80.88,191-72,260.13,2.07,23.64,26.2,41.48,59.93,43.6,95.55C250.67,1132.93,250.11,1144.63,246.54,1154.73Z"/><path class="cls-4" d="M111.74,1001.81c-56.86-32.17-126.67-11.15-161.23,42.81-13.38,21.74-21.07,48.06-17.51,73.7,1.12,9,4,19.07,9.26,26.59,13.49,20.91,34.79,6.75,51.85-.28a30.83,30.83,0,0,0,3.68-1.11c13-2.56,22.07-1.67,34.9,2.34,12.71,5.24,25.75,10.93,39.47,13.38,34.67,6,66.12-10.82,81.06-42.71C171.61,1072.38,150.87,1026.11,111.74,1001.81Z"/><path class="cls-4" d="M747.85,1112.86C716.19,997.23,603.13,920.19,483.71,945.94,400,967.35,336.87,1038.71,345,1128c9.14,65.07,55.86,112.9,121.09,121.71,25.86,3.23,52.29.11,78.16-2,25,0,41.7,3.57,63.66,15.5a48.63,48.63,0,0,0,5.8,3.9c26.65,22.08,56.87,59.32,92.65,29.32,13.72-10,24.2-26.75,31.34-42C758.56,1210.53,759.45,1159.24,747.85,1112.86Zm-44,41.87c-12.93,42.09-58.54,21-88.31,13.65-14.82-2.45-27.76-3.39-42.81-1.78-40.92,8.25-69.13,42.15-113.06,40.48-21.19-1.57-39.14-10-54.75-24.2-44.49-44.16-37.8-111.28-1.34-158.17,68.13-80.88,191-72,260.13,2.07,23.64,26.2,41.48,59.93,43.6,95.55C707.94,1132.93,707.38,1144.63,703.81,1154.73Z"/><path class="cls-4" d="M569,1001.81c-56.87-32.17-126.67-11.15-161.23,42.81-13.38,21.74-21.07,48.06-17.51,73.7,1.12,9,4,19.07,9.26,26.59,13.49,20.91,34.79,6.75,51.84-.28a30.43,30.43,0,0,0,3.69-1.11c13-2.56,22.07-1.67,34.89,2.34,12.72,5.24,25.76,10.93,39.47,13.38,34.68,6,66.12-10.82,81.06-42.71C628.88,1072.38,608.14,1026.11,569,1001.81Z"/><path class="cls-4" d="M1207.27,1112.86c-31.67-115.63-144.73-192.67-264.14-166.92-83.74,21.41-146.85,92.77-138.7,182,9.14,65.07,55.86,112.9,121.08,121.71,25.87,3.23,52.3.11,78.16-2,25,0,41.71,3.57,63.67,15.5a47.84,47.84,0,0,0,5.8,3.9c26.65,22.08,56.86,59.32,92.65,29.32,13.72-10,24.2-26.75,31.34-42C1218,1210.53,1218.87,1159.24,1207.27,1112.86Zm-44,41.87c-12.93,42.09-58.54,21-88.31,13.65-14.83-2.45-27.76-3.39-42.82-1.78-40.92,8.25-69.12,42.15-113,40.48-21.19-1.57-39.14-10-54.75-24.2-44.49-44.16-37.8-111.28-1.34-158.17,68.13-80.88,191-72,260.13,2.07,23.64,26.2,41.48,59.93,43.6,95.55C1167.36,1132.93,1166.8,1144.63,1163.23,1154.73Z"/><path class="cls-4" d="M1028.43,1001.81c-56.87-32.17-126.67-11.15-161.23,42.81-13.38,21.74-21.08,48.06-17.51,73.7,1.12,9,4,19.07,9.25,26.59,13.5,20.91,34.79,6.75,51.85-.28a29.76,29.76,0,0,0,3.68-1.11c13-2.56,22.08-1.67,34.9,2.34,12.71,5.24,25.76,10.93,39.47,13.38,34.68,6,66.12-10.82,81.06-42.71C1088.3,1072.38,1067.56,1026.11,1028.43,1001.81Z"/><path class="cls-4" d="M1671.85,1112.86c-31.66-115.63-144.72-192.67-264.14-166.92-83.74,21.41-146.84,92.77-138.7,182,9.14,65.07,55.86,112.9,121.09,121.71,25.86,3.23,52.29.11,78.16-2,25,0,41.7,3.57,63.66,15.5a48.63,48.63,0,0,0,5.8,3.9c26.65,22.08,56.87,59.32,92.65,29.32,13.72-10,24.2-26.75,31.34-42C1682.56,1210.53,1683.45,1159.24,1671.85,1112.86Zm-44,41.87c-12.93,42.09-58.54,21-88.31,13.65-14.82-2.45-27.76-3.39-42.81-1.78-40.92,8.25-69.13,42.15-113.06,40.48-21.19-1.57-39.14-10-54.75-24.2-44.49-44.16-37.8-111.28-1.34-158.17,68.13-80.88,191-72,260.13,2.07,23.64,26.2,41.48,59.93,43.6,95.55C1631.94,1132.93,1631.38,1144.63,1627.81,1154.73Z"/><path class="cls-4" d="M1493,1001.81c-56.87-32.17-126.67-11.15-161.23,42.81-13.38,21.74-21.07,48.06-17.51,73.7,1.12,9,4,19.07,9.26,26.59,13.49,20.91,34.79,6.75,51.84-.28a30.43,30.43,0,0,0,3.69-1.11c13-2.56,22.07-1.67,34.89,2.34,12.72,5.24,25.76,10.93,39.47,13.38,34.68,6,66.12-10.82,81.06-42.71C1552.88,1072.38,1532.14,1026.11,1493,1001.81Z"/><path class="cls-4" d="M2131.27,1112.86c-31.67-115.63-144.73-192.67-264.14-166.92-83.74,21.41-146.85,92.77-138.7,182,9.14,65.07,55.86,112.9,121.08,121.71,25.87,3.23,52.3.11,78.16-2,25,0,41.71,3.57,63.67,15.5a47.84,47.84,0,0,0,5.8,3.9c26.65,22.08,56.86,59.32,92.65,29.32,13.72-10,24.2-26.75,31.34-42C2142,1210.53,2142.87,1159.24,2131.27,1112.86Zm-44,41.87c-12.93,42.09-58.54,21-88.31,13.65-14.83-2.45-27.76-3.39-42.82-1.78-40.92,8.25-69.12,42.15-113,40.48-21.19-1.57-39.14-10-54.75-24.2-44.49-44.16-37.8-111.28-1.34-158.17,68.13-80.88,191-72,260.13,2.07,23.64,26.2,41.48,59.93,43.6,95.55C2091.36,1132.93,2090.8,1144.63,2087.23,1154.73Z"/><path class="cls-4" d="M1952.43,1001.81c-56.87-32.17-126.67-11.15-161.23,42.81-13.38,21.74-21.08,48.06-17.51,73.7,1.12,9,4,19.07,9.25,26.59,13.5,20.91,34.79,6.75,51.85-.28a29.76,29.76,0,0,0,3.68-1.11c13-2.56,22.08-1.67,34.9,2.34,12.71,5.24,25.76,10.93,39.47,13.38,34.68,6,66.12-10.82,81.06-42.71C2012.3,1072.38,1991.56,1026.11,1952.43,1001.81Z"/><path class="cls-4" d="M409,720.44C377.31,604.82,264.25,527.77,144.84,553.53,61.1,574.94-2,646.3,6.13,735.55,15.27,800.61,62,848.44,127.22,857.25c25.87,3.23,52.3.11,78.16-2,25,0,41.71,3.57,63.67,15.5a47.93,47.93,0,0,0,5.8,3.91C301.5,896.72,331.71,934,367.5,904c13.72-10,24.2-26.76,31.34-42C419.68,818.11,420.58,766.83,409,720.44Zm-44,41.87C352,804.4,306.4,783.33,276.63,776c-14.83-2.44-27.76-3.39-42.82-1.78-40.92,8.25-69.13,42.15-113,40.48-21.19-1.57-39.14-10-54.75-24.19-44.49-44.16-37.8-111.29-1.34-158.17,68.13-80.89,191-72,260.13,2.06,23.64,26.21,41.48,59.94,43.6,95.56C369.06,740.51,368.51,752.22,364.94,762.31Z"/><path class="cls-4" d="M230.14,609.39c-56.87-32.17-126.67-11.15-161.23,42.81-13.38,21.74-21.08,48.06-17.51,73.7,1.12,9,4,19.07,9.25,26.6,13.5,20.9,34.79,6.74,51.85-.28a28.2,28.2,0,0,0,3.68-1.12c13-2.56,22.08-1.67,34.9,2.34,12.71,5.24,25.76,10.93,39.47,13.39,34.68,6,66.12-10.82,81.06-42.71C290,680,269.27,633.7,230.14,609.39Z"/><path class="cls-4" d="M866.25,720.44C834.58,604.82,721.52,527.77,602.1,553.53c-83.73,21.41-146.84,92.77-138.7,182,9.14,65.06,55.86,112.89,121.09,121.7,25.87,3.23,52.29.11,78.16-2,25,0,41.7,3.57,63.67,15.5a47.93,47.93,0,0,0,5.8,3.91C758.76,896.72,789,934,824.77,904c13.72-10,24.2-26.76,31.33-42C877,818.11,877.84,766.83,866.25,720.44Zm-44,41.87c-12.93,42.09-58.54,21-88.31,13.65-14.83-2.44-27.77-3.39-42.82-1.78C650.16,782.43,622,816.33,578,814.66c-21.18-1.57-39.14-10-54.74-24.19-44.49-44.16-37.8-111.29-1.34-158.17,68.12-80.89,191-72,260.13,2.06,23.64,26.21,41.48,59.94,43.6,95.56C826.33,740.51,825.77,752.22,822.21,762.31Z"/><path class="cls-4" d="M687.4,609.39c-56.86-32.17-126.66-11.15-161.22,42.81-13.38,21.74-21.08,48.06-17.51,73.7,1.12,9,4,19.07,9.25,26.6,13.5,20.9,34.79,6.74,51.85-.28a28.67,28.67,0,0,0,3.68-1.12c13-2.56,22.08-1.67,34.9,2.34,12.71,5.24,25.76,10.93,39.47,13.39,34.67,6,66.12-10.82,81.06-42.71C747.28,680,726.54,633.7,687.4,609.39Z"/><path class="cls-4" d="M1325.67,720.44C1294,604.82,1180.94,527.77,1061.52,553.53c-83.74,21.41-146.84,92.77-138.7,182,9.14,65.06,55.86,112.89,121.09,121.7,25.87,3.23,52.29.11,78.16-2,25,0,41.7,3.57,63.66,15.5a48.73,48.73,0,0,0,5.8,3.91c26.65,22.07,56.87,59.31,92.66,29.32,13.71-10,24.2-26.76,31.33-42C1336.37,818.11,1337.26,766.83,1325.67,720.44Zm-44.05,41.87c-12.93,42.09-58.54,21-88.31,13.65-14.82-2.44-27.76-3.39-42.81-1.78-40.92,8.25-69.13,42.15-113.06,40.48-21.18-1.57-39.14-10-54.75-24.19-44.48-44.16-37.79-111.29-1.34-158.17,68.13-80.89,191-72,260.13,2.06,23.64,26.21,41.48,59.94,43.6,95.56C1285.75,740.51,1285.19,752.22,1281.62,762.31Z"/><path class="cls-4" d="M1146.82,609.39c-56.86-32.17-126.66-11.15-161.23,42.81-13.38,21.74-21.07,48.06-17.5,73.7,1.11,9,4,19.07,9.25,26.6,13.49,20.9,34.79,6.74,51.85-.28a29.16,29.16,0,0,0,3.68-1.12c13-2.56,22.07-1.67,34.9,2.34,12.71,5.24,25.75,10.93,39.47,13.39,34.67,6,66.12-10.82,81.06-42.71C1206.7,680,1186,633.7,1146.82,609.39Z"/><path class="cls-4" d="M1790.25,720.44c-31.67-115.62-144.73-192.67-264.15-166.91-83.73,21.41-146.84,92.77-138.7,182,9.14,65.06,55.86,112.89,121.09,121.7,25.87,3.23,52.29.11,78.16-2,25,0,41.7,3.57,63.67,15.5a47.93,47.93,0,0,0,5.8,3.91C1682.76,896.72,1713,934,1748.77,904c13.72-10,24.2-26.76,31.33-42C1801,818.11,1801.84,766.83,1790.25,720.44Zm-44,41.87c-12.93,42.09-58.54,21-88.31,13.65-14.83-2.44-27.77-3.39-42.82-1.78-40.92,8.25-69.13,42.15-113.06,40.48-21.18-1.57-39.14-10-54.74-24.19-44.49-44.16-37.8-111.29-1.34-158.17,68.12-80.89,191-72,260.13,2.06,23.64,26.21,41.48,59.94,43.6,95.56C1750.33,740.51,1749.77,752.22,1746.21,762.31Z"/><path class="cls-4" d="M1611.4,609.39c-56.86-32.17-126.66-11.15-161.22,42.81-13.38,21.74-21.08,48.06-17.51,73.7,1.12,9,4,19.07,9.25,26.6,13.5,20.9,34.79,6.74,51.85-.28a28.67,28.67,0,0,0,3.68-1.12c13-2.56,22.08-1.67,34.9,2.34,12.71,5.24,25.76,10.93,39.47,13.39,34.67,6,66.12-10.82,81.06-42.71C1671.28,680,1650.54,633.7,1611.4,609.39Z"/><path class="cls-4" d="M2249.67,720.44C2218,604.82,2104.94,527.77,1985.52,553.53c-83.74,21.41-146.84,92.77-138.7,182,9.14,65.06,55.86,112.89,121.09,121.7,25.87,3.23,52.29.11,78.16-2,25,0,41.7,3.57,63.66,15.5a48.73,48.73,0,0,0,5.8,3.91c26.65,22.07,56.87,59.31,92.66,29.32,13.71-10,24.2-26.76,31.33-42C2260.37,818.11,2261.26,766.83,2249.67,720.44Zm-44.05,41.87c-12.93,42.09-58.54,21-88.31,13.65-14.82-2.44-27.76-3.39-42.81-1.78-40.92,8.25-69.13,42.15-113.06,40.48-21.18-1.57-39.14-10-54.75-24.19-44.48-44.16-37.79-111.29-1.34-158.17,68.13-80.89,191-72,260.13,2.06,23.64,26.21,41.48,59.94,43.6,95.56C2209.75,740.51,2209.19,752.22,2205.62,762.31Z"/><path class="cls-4" d="M2070.82,609.39c-56.86-32.17-126.66-11.15-161.23,42.81-13.38,21.74-21.07,48.06-17.5,73.7,1.11,9,4,19.07,9.25,26.6,13.49,20.9,34.79,6.74,51.85-.28a29.16,29.16,0,0,0,3.68-1.12c13-2.56,22.07-1.67,34.9,2.34,12.71,5.24,25.75,10.93,39.47,13.39,34.67,6,66.12-10.82,81.06-42.71C2130.7,680,2110,633.7,2070.82,609.39Z"/><path class="cls-4" d="M36.67,336.71C5,221.08-108.06,144-227.47,169.79c-83.74,21.41-146.85,92.77-138.71,182,9.14,65.06,55.86,112.9,121.09,121.71,25.87,3.23,52.3.11,78.16-2,25,0,41.7,3.57,63.67,15.5a47.84,47.84,0,0,0,5.8,3.9C-70.81,513-40.6,550.23-4.81,520.23c13.72-10,24.2-26.76,31.34-42C47.37,434.38,48.26,383.09,36.67,336.71Zm-44,41.86c-12.93,42.1-58.54,21-88.31,13.66-14.83-2.45-27.76-3.4-42.82-1.78-40.92,8.25-69.13,42.15-113,40.47-21.19-1.56-39.14-10-54.75-24.19-44.49-44.16-37.8-111.28-1.34-158.17,68.13-80.89,191-72,260.13,2.07,23.64,26.2,41.48,59.93,43.6,95.55C-3.25,356.78-3.8,368.48-7.37,378.57Z"/><path class="cls-4" d="M496.09,336.71C464.42,221.08,351.36,144,231.94,169.79c-83.73,21.41-146.84,92.77-138.7,182,9.14,65.06,55.86,112.9,121.09,121.71,25.87,3.23,52.29.11,78.16-2,25,0,41.7,3.57,63.66,15.5a48.63,48.63,0,0,0,5.8,3.9c26.65,22.08,56.87,59.32,92.66,29.32,13.72-10,24.2-26.76,31.33-42C506.79,434.38,507.68,383.09,496.09,336.71Zm-44,41.86c-12.93,42.1-58.53,21-88.3,13.66-14.83-2.45-27.77-3.4-42.82-1.78C280,398.7,251.79,432.6,207.86,430.92c-21.18-1.56-39.14-10-54.74-24.19-44.49-44.16-37.8-111.28-1.35-158.17,68.13-80.89,191-72,260.14,2.07,23.64,26.2,41.48,59.93,43.59,95.55C456.17,356.78,455.61,368.48,452,378.57Z"/><path class="cls-4" d="M317.24,225.65C260.38,193.48,190.58,214.5,156,268.47c-13.39,21.74-21.08,48.06-17.51,73.7,1.12,9,4,19.07,9.25,26.59,13.5,20.91,34.79,6.75,51.85-.28a30.29,30.29,0,0,0,3.68-1.11c13-2.57,22.08-1.67,34.9,2.34C250.9,375,264,380.64,277.66,383.09c34.67,6,66.12-10.82,81.06-42.71C377.12,296.23,356.38,250,317.24,225.65Z"/><path class="cls-4" d="M953.36,336.71C921.69,221.08,808.63,144,689.21,169.79c-83.74,21.41-146.84,92.77-138.7,182,9.14,65.06,55.86,112.9,121.09,121.71,25.87,3.23,52.29.11,78.16-2,25,0,41.7,3.57,63.66,15.5a48.63,48.63,0,0,0,5.8,3.9c26.65,22.08,56.87,59.32,92.66,29.32,13.71-10,24.2-26.76,31.33-42C964.06,434.38,965,383.09,953.36,336.71Zm-44.05,41.86c-12.93,42.1-58.54,21-88.31,13.66-14.82-2.45-27.76-3.4-42.81-1.78-40.92,8.25-69.13,42.15-113.06,40.47-21.18-1.56-39.14-10-54.75-24.19C565.9,362.57,572.59,295.45,609,248.56c68.13-80.89,191-72,260.13,2.07,23.64,26.2,41.48,59.93,43.6,95.55C913.44,356.78,912.88,368.48,909.31,378.57Z"/><path class="cls-4" d="M774.51,225.65c-56.86-32.17-126.67-11.15-161.23,42.82-13.38,21.74-21.07,48.06-17.5,73.7,1.11,9,4,19.07,9.25,26.59,13.49,20.91,34.79,6.75,51.85-.28a30.83,30.83,0,0,0,3.68-1.11c13-2.57,22.07-1.67,34.9,2.34,12.71,5.24,25.75,10.93,39.47,13.38,34.67,6,66.12-10.82,81.06-42.71C834.38,296.23,813.64,250,774.51,225.65Z"/><path class="cls-4" d="M1412.77,336.71C1381.11,221.08,1268,144,1148.63,169.79c-83.74,21.41-146.84,92.77-138.7,182,9.14,65.06,55.86,112.9,121.09,121.71,25.86,3.23,52.29.11,78.16-2,25,0,41.7,3.57,63.66,15.5a47.84,47.84,0,0,0,5.8,3.9c26.65,22.08,56.86,59.32,92.65,29.32,13.72-10,24.2-26.76,31.34-42C1423.48,434.38,1424.37,383.09,1412.77,336.71Zm-44,41.86c-12.93,42.1-58.54,21-88.31,13.66-14.82-2.45-27.76-3.4-42.82-1.78-40.92,8.25-69.12,42.15-113,40.47-21.19-1.56-39.14-10-54.75-24.19-44.49-44.16-37.8-111.28-1.34-158.17,68.13-80.89,191-72,260.13,2.07,23.64,26.2,41.48,59.93,43.6,95.55C1372.86,356.78,1372.3,368.48,1368.73,378.57Z"/><path class="cls-4" d="M1233.93,225.65c-56.87-32.17-126.67-11.15-161.23,42.82-13.38,21.74-21.08,48.06-17.51,73.7,1.12,9,4,19.07,9.26,26.59,13.49,20.91,34.79,6.75,51.84-.28a30.43,30.43,0,0,0,3.69-1.11c13-2.57,22.07-1.67,34.89,2.34,12.72,5.24,25.76,10.93,39.47,13.38,34.68,6,66.12-10.82,81.06-42.71C1293.8,296.23,1273.06,250,1233.93,225.65Z"/><path class="cls-4" d="M1877.36,336.71C1845.69,221.08,1732.63,144,1613.21,169.79c-83.74,21.41-146.84,92.77-138.7,182,9.14,65.06,55.86,112.9,121.09,121.71,25.87,3.23,52.29.11,78.16-2,25,0,41.7,3.57,63.66,15.5a48.63,48.63,0,0,0,5.8,3.9c26.65,22.08,56.87,59.32,92.66,29.32,13.71-10,24.2-26.76,31.33-42C1888.06,434.38,1889,383.09,1877.36,336.71Zm-44,41.86c-12.93,42.1-58.54,21-88.31,13.66-14.82-2.45-27.76-3.4-42.81-1.78-40.92,8.25-69.13,42.15-113.06,40.47-21.18-1.56-39.14-10-54.75-24.19-44.48-44.16-37.79-111.28-1.34-158.17,68.13-80.89,191-72,260.13,2.07,23.64,26.2,41.48,59.93,43.6,95.55C1837.44,356.78,1836.88,368.48,1833.31,378.57Z"/><path class="cls-4" d="M1698.51,225.65c-56.86-32.17-126.67-11.15-161.23,42.82-13.38,21.74-21.07,48.06-17.5,73.7,1.11,9,4,19.07,9.25,26.59,13.49,20.91,34.79,6.75,51.85-.28a30.83,30.83,0,0,0,3.68-1.11c13-2.57,22.07-1.67,34.9,2.34,12.71,5.24,25.75,10.93,39.47,13.38,34.67,6,66.12-10.82,81.06-42.71C1758.38,296.23,1737.64,250,1698.51,225.65Z"/><path class="cls-4" d="M155.07-55.71C123.4-171.34,10.34-248.38-109.08-222.62c-83.74,21.4-146.84,92.76-138.7,182,9.14,65.07,55.86,112.9,121.09,121.71,25.86,3.23,52.29.11,78.16-2,25,0,41.7,3.57,63.66,15.5a47.46,47.46,0,0,0,5.8,3.9c26.65,22.08,56.87,59.32,92.66,29.33,13.71-10,24.19-26.76,31.33-42C165.77,42,166.66-9.33,155.07-55.71ZM111-13.84C98.09,28.25,52.48,7.18,22.71-.19,7.89-2.64-5-3.58-20.1-2-61,6.28-89.23,40.18-133.16,38.51c-21.19-1.57-39.14-10-54.75-24.2C-232.4-29.84-225.7-97-189.25-143.85c68.13-80.89,191-72,260.13,2.06,23.64,26.21,41.48,59.93,43.6,95.56C115.15-35.64,114.59-23.94,111-13.84Z"/><path class="cls-4" d="M614.48-55.71C582.82-171.34,469.75-248.38,350.34-222.62c-83.74,21.4-146.84,92.76-138.7,182C220.78,24.46,267.5,72.29,332.73,81.1c25.86,3.23,52.29.11,78.15-2,25,0,41.71,3.57,63.67,15.5a46.7,46.7,0,0,0,5.8,3.9C507,120.57,537.21,157.81,573,127.82c13.72-10,24.2-26.76,31.34-42C625.19,42,626.08-9.33,614.48-55.71Zm-44,41.87c-12.93,42.09-58.54,21-88.31,13.65C467.3-2.64,454.37-3.58,439.31-2c-40.92,8.25-69.12,42.15-113,40.48-21.19-1.57-39.14-10-54.75-24.2C227-29.84,233.71-97,270.17-143.85c68.13-80.89,191-72,260.13,2.06,23.64,26.21,41.48,59.93,43.6,95.56C574.57-35.64,574-23.94,570.44-13.84Z"/><path class="cls-4" d="M1071.75-55.71C1040.08-171.34,927-248.38,807.61-222.62c-83.74,21.4-146.85,92.76-138.71,182C678,24.46,724.77,72.29,790,81.1c25.87,3.23,52.3.11,78.16-2,25,0,41.71,3.57,63.67,15.5a46.7,46.7,0,0,0,5.8,3.9c26.65,22.08,56.86,59.32,92.65,29.33,13.72-10,24.2-26.76,31.34-42C1082.45,42,1083.35-9.33,1071.75-55.71Zm-44,41.87c-12.93,42.09-58.54,21-88.31,13.65C924.57-2.64,911.64-3.58,896.58-2c-40.92,8.25-69.13,42.15-113.05,40.48-21.19-1.57-39.14-10-54.75-24.2C684.29-29.84,691-97,727.44-143.85c68.13-80.89,191-72,260.13,2.06,23.64,26.21,41.48,59.93,43.6,95.56C1031.83-35.64,1031.28-23.94,1027.71-13.84Z"/><path class="cls-4" d="M1531.17-55.71C1499.5-171.34,1386.44-248.38,1267-222.62c-83.73,21.4-146.84,92.76-138.7,182,9.14,65.07,55.86,112.9,121.09,121.71,25.87,3.23,52.29.11,78.16-2,25,0,41.7,3.57,63.66,15.5a47.46,47.46,0,0,0,5.8,3.9c26.65,22.08,56.87,59.32,92.66,29.33,13.72-10,24.2-26.76,31.33-42C1541.87,42,1542.76-9.33,1531.17-55.71Zm-44.05,41.87c-12.93,42.09-58.53,21-88.3,13.65C1384-2.64,1371.05-3.58,1356-2c-40.92,8.25-69.13,42.15-113.06,40.48-21.18-1.57-39.14-10-54.74-24.2-44.49-44.15-37.8-111.28-1.35-158.16,68.13-80.89,191-72,260.14,2.06,23.64,26.21,41.48,59.93,43.59,95.56C1491.25-35.64,1490.69-23.94,1487.12-13.84Z"/><path class="cls-4" d="M1995.75-55.71C1964.08-171.34,1851-248.38,1731.61-222.62c-83.74,21.4-146.85,92.76-138.71,182C1602,24.46,1648.77,72.29,1714,81.1c25.87,3.23,52.3.11,78.16-2,25,0,41.71,3.57,63.67,15.5a46.7,46.7,0,0,0,5.8,3.9c26.65,22.08,56.86,59.32,92.65,29.33,13.72-10,24.2-26.76,31.34-42C2006.45,42,2007.35-9.33,1995.75-55.71Zm-44,41.87c-12.93,42.09-58.54,21-88.31,13.65-14.83-2.45-27.76-3.39-42.82-1.78-40.92,8.25-69.13,42.15-113,40.48-21.19-1.57-39.14-10-54.75-24.2C1608.29-29.84,1615-97,1651.44-143.85c68.13-80.89,191-72,260.13,2.06,23.64,26.21,41.48,59.93,43.6,95.56C1955.83-35.64,1955.28-23.94,1951.71-13.84Z"/></g></svg>