<svg xmlns="http://www.w3.org/2000/svg" xmlns:xlink="http://www.w3.org/1999/xlink" viewBox="0 0 3199.98 906.19"><defs><style>.cls-1{fill:none;}.cls-2{clip-path:url(#clip-path);}.cls-3{fill:#ff8112;}</style><clipPath id="clip-path" transform="translate(-29.61 -86.91)"><rect class="cls-1" width="1080" height="1080"/></clipPath></defs><title>logo-conte</title><g id="Camada_2" data-name="Camada 2"><g id="Camada_1-2" data-name="Camada 1"><g class="cls-2"><path class="cls-3" d="M924.53,965.37c33.91-24.79,59.82-66.13,77.45-103.89,51.53-108.31,53.74-235.08,25.08-349.72C948.79,226,669.33,35.54,374.18,99.2c-207,52.92-362.95,229.29-342.83,449.89,22.59,160.82,138.07,279,299.3,300.82,63.93,8,129.25.27,193.18-5,61.73,0,103.08,8.82,157.36,38.31a117.91,117.91,0,0,0,14.33,9.65C761.39,947.47,836.08,1039.51,924.53,965.37ZM179.34,684.83C69.38,575.69,85.92,409.78,176,293.9,344.42,94,648.13,115.87,819,299c58.43,64.77,102.52,148.13,107.76,236.18,1.65,26.19.27,55.12-8.55,80.06-32,104-144.69,52-218.27,33.75-36.65-6-68.62-8.39-105.83-4.4C493,665,423.24,748.77,314.66,744.63,262.3,740.77,217.92,720,179.34,684.83Zm508.18-164C733,411.72,681.74,297.35,585,237.27c-140.55-79.51-313.08-27.56-398.5,105.83-33.07,53.73-52.09,118.78-43.28,182.16,2.77,22.18,9.92,47.13,22.88,65.73,33.35,51.67,86,16.68,128.15-.69a73.84,73.84,0,0,0,9.1-2.76c32.24-6.33,54.56-4.13,86.25,5.79,31.43,12.95,63.67,27,97.56,33.07C572.88,641.29,650.6,599.66,687.52,520.84Zm1356.2,50.72V387.74h90.1V347.92H1910.88v39.82h83.77V571.56ZM1326.07,391V350.53a199.26,199.26,0,0,0-38.58-11,229.62,229.62,0,0,0-41.89-4.13c-39.13,0-71.37,11.3-96.46,33.62q-38,33.06-38,86c0,34.72,12.12,63.11,36.38,84.34,24.8,21.77,56.78,32.24,96.46,32.24a234,234,0,0,0,47.39-4.41,139,139,0,0,0,39.14-13.23v-43.4a187,187,0,0,1-40.24,18.88,125.92,125.92,0,0,1-39.13,5.78c-26.45,0-48.51-7.44-66.14-22.59s-26.46-33.91-26.46-56.5c0-25.35,8.82-45.88,26.46-61.18,17.37-15.58,40.51-23.15,69.45-23.15a135.86,135.86,0,0,1,36.92,5A150,150,0,0,1,1326.07,391ZM1535.8,562.47a140,140,0,0,0,46-26.46,113.87,113.87,0,0,0,30.32-37.49,100.94,100.94,0,0,0,10.47-44.91,103.81,103.81,0,0,0-10.47-45.48,116.55,116.55,0,0,0-30.32-37.76,155.92,155.92,0,0,0-46-26.17,169.28,169.28,0,0,0-53.19-8.82,174.92,174.92,0,0,0-54.3,8.82,141,141,0,0,0-45.19,25.62c-13.51,11.31-23.7,23.85-30.6,38.17a104.09,104.09,0,0,0-10.46,45.62,99.72,99.72,0,0,0,10.46,44.91c6.9,14.2,17.09,27,30.6,38.59a139,139,0,0,0,45.47,25.36,162.59,162.59,0,0,0,107.21,0Zm-119.61-50.16c-18.46-16.13-27.27-35.83-27.27-58.7,0-23.16,8.81-42.85,27.27-58.7,18.19-16,40.24-24.25,66.42-24.25,25.64,0,47.41,8.26,65.6,24.25s27,35.54,27,58.7c0,22.87-8.82,42.57-27,58.7s-40,23.7-65.6,23.7C1456.43,536,1434.66,528.3,1416.19,512.31Zm730-60.22c0,36,11.85,64.62,36.39,86.53q36.36,32.88,95.07,32.94c26.46,0,49.88-5,70-14.88s36.65-25.08,49.6-44.92l-33.61-19c-10.75,16-22.89,27.84-36.94,35.56-14,8.12-29.48,12-46.85,12-25.35,0-45.74-7.29-61.73-21.63-15.7-14.32-23.7-33.34-23.7-56.76V458.7H2399v-7.57c0-35.55-11.31-64.08-33.36-84.89-22.32-20.94-52.63-31-90.67-31-37.75,0-68.62,10.89-92.88,32.93C2158.08,389.8,2146.23,418.05,2146.23,452.09ZM2329,383.75c13.51,10.06,21.23,17.76,22.59,36.79H2194.46c2.21-18.19,10.75-25.36,24.8-36.24,14.34-11,32.24-16.13,53.75-16.13C2296.7,368.17,2315.17,372.86,2329,383.75Zm588.66,127.32c8-15.85,12.13-34,12.13-54.71s-4.13-39-12.13-54.85c-8-15.7-20.11-28.92-35.55-39.12-11.85-7.86-25.9-13.51-41.61-17.09-16-2.89-43-4.69-81.85-4.69h-52.1V571.56h63.95c32,0,55.67-1.51,71.1-5a122.86,122.86,0,0,0,40.51-16.39A102.65,102.65,0,0,0,2917.61,511.07ZM2757,535.46V381.53h16.53c26.73,0,45.47,1.25,56.22,3.46,10.75,2.06,19.57,5.5,26.46,11a62.66,62.66,0,0,1,20.94,25.77c4.41,10.61,6.9,22.73,6.9,36.92,0,13.37-2.49,25.91-7.17,36.52a62.91,62.91,0,0,1-20.67,26.19A61.14,61.14,0,0,1,2830,532.15c-10.47,2.07-29.21,3.31-56.49,3.31ZM1837.3,460V571.56h44.91V439.27c0-34-9.92-59.94-29.76-77.43s-49-26.46-87.91-26.46c-38.3,0-67.25,8.82-87.37,26.46-19.84,17.49-30,43.54-30,77.43V571.56h46.31V460c0-32.25,5.51-55.12,16.53-68.35,11-12.68,29.49-19.29,55.67-19.29,25.91,0,44.37,6.61,55.4,19.29C1831.78,404.69,1837.3,427.29,1837.3,460Zm707.44-81c-10.75,12.68-17.64,28-16.82,43.27.84,30.59,24,46.57,47.13,45.88,40-1.51,57.33-42.57,33.34-72.06-4.95-6.21-11.57-11-19.84-14.6,5.79-17.09,31.43-18.61,46.3-14.89v80.2c0,33.06-5.23,55.94-16,68.34-10.73,13.24-29.47,19.57-55.66,19.57s-44.65-6.48-55.67-19.57-16.25-35.54-16.25-68.34V335.38H2445V467.66c0,34.18,9.92,59.8,29.77,77.58,20.11,17.5,49.05,26.32,87.36,26.32,38.86,0,68.07-8.82,87.92-26.32s30-43.4,30-77.58V335.38c-23.7-.28-52.64-1.79-79.37,5.78C2578.9,347.37,2559.35,361.29,2544.74,378.92Zm445.08-9.1c-13.23,11.31-23.43,23.85-30.59,38.17a103.58,103.58,0,0,0-10.2,45.62,99.26,99.26,0,0,0,10.2,44.91c7.16,14.2,17.36,27,30.59,38.59a137.36,137.36,0,0,0,45.75,25.36,161.77,161.77,0,0,0,106.93,0,134.62,134.62,0,0,0,46-26.46c13.51-10.75,23.69-23.29,30.59-37.49a100.94,100.94,0,0,0,10.47-44.91,103.81,103.81,0,0,0-10.47-45.48c-6.9-14.32-17.08-26.72-30.59-37.76a151.05,151.05,0,0,0-45.76-26.17,169.53,169.53,0,0,0-53.46-8.82,173.08,173.08,0,0,0-54,8.82A139.25,139.25,0,0,0,2989.82,369.82Zm165.08,25.09c18.19,15.85,27.27,35.54,27.27,58.7,0,22.87-9.08,42.57-27.27,58.7-17.92,16-39.69,23.7-65.6,23.7s-48-7.71-66.14-23.7-27.28-35.83-27.28-58.7c0-23.16,9.1-42.85,27-58.7,18.19-16,40.25-24.25,66.42-24.25C3115.21,370.66,3137,378.92,3154.9,394.91Z" transform="translate(-29.61 -86.91)"/></g></g></g></svg>