<svg id="Camada_1" data-name="Camada 1" xmlns="http://www.w3.org/2000/svg" viewBox="0 0 218.93 90.9"><defs><style>.cls-1{fill:#ff8112;}</style></defs><title>logo-deitada</title><path class="cls-1" d="M61.8,74.21a18.52,18.52,0,0,0,5.23-7c3.49-7.32,3.64-15.89,1.7-23.64-5.29-19.32-24.19-32.2-44.14-27.89C10.6,19.23.05,31.15,1.41,46.06,2.94,56.93,10.75,64.93,21.65,66.4c4.32.54,8.74,0,13.06-.34a19.87,19.87,0,0,1,10.64,2.59,6.91,6.91,0,0,0,1,.66C50.77,73,55.82,79.22,61.8,74.21Zm-50.38-19C4,47.86,5.1,36.65,11.19,28.81c11.39-13.52,31.92-12,43.47.35,4,4.37,6.93,10,7.29,16a14,14,0,0,1-.58,5.42c-2.16,7-9.78,3.51-14.76,2.28a25.19,25.19,0,0,0-7.15-.3c-6.84,1.38-11.55,7-18.89,6.76A14.84,14.84,0,0,1,11.42,55.24ZM45.77,44.15C48.85,36.78,45.38,29,38.84,25c-9.5-5.37-21.16-1.86-26.94,7.16A18.92,18.92,0,0,0,9,44.45a10.25,10.25,0,0,0,1.54,4.45c2.26,3.49,5.82,1.12,8.67,0a4.76,4.76,0,0,0,.61-.19,10.55,10.55,0,0,1,5.83.39,32.71,32.71,0,0,0,6.6,2.24A12.27,12.27,0,0,0,45.77,44.15Zm91.69,3.43V35.16h6.09v-2.7H128.48v2.7h5.66V47.58ZM88.94,35.38V32.64a13.28,13.28,0,0,0-2.6-.75,16.38,16.38,0,0,0-2.84-.27A9.47,9.47,0,0,0,77,33.89a7.35,7.35,0,0,0-2.57,5.81,7.22,7.22,0,0,0,2.46,5.7,9.5,9.5,0,0,0,6.52,2.18,15.56,15.56,0,0,0,3.21-.3,9.22,9.22,0,0,0,2.64-.89V43.46a12.86,12.86,0,0,1-2.72,1.27,8.49,8.49,0,0,1-2.64.39A6.66,6.66,0,0,1,79.4,43.6a4.85,4.85,0,0,1-1.78-3.82,5.21,5.21,0,0,1,1.78-4.14,6.79,6.79,0,0,1,4.7-1.57,9.35,9.35,0,0,1,2.5.34A9.83,9.83,0,0,1,88.94,35.38ZM103.12,47a9.41,9.41,0,0,0,3.11-1.79,7.62,7.62,0,0,0,2-2.54,6.75,6.75,0,0,0,.71-3,7,7,0,0,0-.71-3.08,7.86,7.86,0,0,0-2-2.55,10.54,10.54,0,0,0-3.11-1.77,11.49,11.49,0,0,0-3.59-.59,11.86,11.86,0,0,0-3.67.59,9.52,9.52,0,0,0-3.06,1.73,8,8,0,0,0-2.07,2.58A7.14,7.14,0,0,0,90,39.61a6.79,6.79,0,0,0,.71,3,8.18,8.18,0,0,0,2.07,2.61A9.44,9.44,0,0,0,95.87,47a10.77,10.77,0,0,0,3.66.61A10.62,10.62,0,0,0,103.12,47ZM95,43.58a5.08,5.08,0,0,1-1.85-4,5,5,0,0,1,1.85-4A6.57,6.57,0,0,1,99.53,34,6.49,6.49,0,0,1,104,35.64a5.05,5.05,0,0,1,1.83,4,5.12,5.12,0,0,1-1.83,4,6.46,6.46,0,0,1-4.43,1.6A6.56,6.56,0,0,1,95,43.58Zm49.35-4.08a7.44,7.44,0,0,0,2.46,5.86,9.22,9.22,0,0,0,6.43,2.22,10.59,10.59,0,0,0,4.73-1,8.49,8.49,0,0,0,3.35-3l-2.27-1.29a7.32,7.32,0,0,1-2.5,2.41,6.15,6.15,0,0,1-3.16.81A6,6,0,0,1,149.25,44a4.94,4.94,0,0,1-1.6-3.83V40h13.83v-.51a7.57,7.57,0,0,0-2.26-5.74,8.62,8.62,0,0,0-6.13-2.09,9,9,0,0,0-6.28,2.22A7.3,7.3,0,0,0,144.39,39.5Zm12.35-4.61a3,3,0,0,1,1.53,2.48H147.65a3.32,3.32,0,0,1,1.68-2.45A5.8,5.8,0,0,1,153,33.83,5.88,5.88,0,0,1,156.74,34.89Zm39.8,8.6a8.76,8.76,0,0,0,0-7.4,6.93,6.93,0,0,0-2.4-2.65,8.58,8.58,0,0,0-2.82-1.15,33.89,33.89,0,0,0-5.53-.32h-3.52V47.58h4.32a24.7,24.7,0,0,0,4.81-.33,8.63,8.63,0,0,0,2.74-1.11A6.91,6.91,0,0,0,196.54,43.49Zm-10.86,1.65V34.74h1.12a21.6,21.6,0,0,1,3.8.23,4,4,0,0,1,1.78.74,4.25,4.25,0,0,1,1.42,1.75,6.32,6.32,0,0,1,.47,2.49,6.08,6.08,0,0,1-.49,2.47,4.23,4.23,0,0,1-1.4,1.77,4,4,0,0,1-1.77.73,22.5,22.5,0,0,1-3.81.22ZM123.5,40v7.54h3V38.64a6.65,6.65,0,0,0-2-5.24q-2-1.78-5.94-1.78a8.7,8.7,0,0,0-5.91,1.78,6.67,6.67,0,0,0-2,5.24v8.94h3.13V40c0-2.18.37-3.73,1.12-4.62a6,6,0,0,1,7.51,0C123.13,36.3,123.5,37.83,123.5,40Zm47.83-5.48a4.3,4.3,0,0,0-1.14,2.92,3.05,3.05,0,0,0,3.19,3.11,2.92,2.92,0,0,0,2.25-4.88,3.32,3.32,0,0,0-1.34-1c.39-1.16,2.13-1.26,3.13-1v5.42c0,2.24-.35,3.78-1.08,4.62s-2,1.33-3.76,1.33a4.64,4.64,0,0,1-3.76-1.33c-.75-.87-1.1-2.4-1.1-4.62V31.62h-3.13v8.94a6.65,6.65,0,0,0,2,5.24,8.67,8.67,0,0,0,5.9,1.78q3.94,0,5.95-1.78a6.63,6.63,0,0,0,2-5.24V31.62a18.54,18.54,0,0,0-5.37.39A7.81,7.81,0,0,0,171.33,34.56Zm30.09-.62a8.54,8.54,0,0,0-2.07,2.58,7.12,7.12,0,0,0-.69,3.09,6.77,6.77,0,0,0,.69,3,8.77,8.77,0,0,0,2.07,2.61A9.33,9.33,0,0,0,204.51,47a10.74,10.74,0,0,0,3.64.61,10.62,10.62,0,0,0,3.59-.61,9,9,0,0,0,3.11-1.79,7.22,7.22,0,0,0,2.07-2.54,6.75,6.75,0,0,0,.71-3,7,7,0,0,0-.71-3.08A7.43,7.43,0,0,0,214.85,34a10.19,10.19,0,0,0-3.09-1.77,11.57,11.57,0,0,0-3.61-.59,11.84,11.84,0,0,0-3.66.59A9.46,9.46,0,0,0,201.42,33.94Zm11.16,1.7a5.06,5.06,0,0,1,1.84,4,5.13,5.13,0,0,1-1.84,4,6.39,6.39,0,0,1-4.43,1.6,6.53,6.53,0,0,1-4.48-1.6,5.17,5.17,0,0,1-1.84-4,5.11,5.11,0,0,1,1.83-4A6.57,6.57,0,0,1,208.15,34,6.42,6.42,0,0,1,212.58,35.64Z"/></svg>